<?xml version="1.0" encoding="UTF-8"?>
<svg width="230px" height="40px" viewBox="0 0 230 40" version="1.1" xmlns="http://www.w3.org/2000/svg" xmlns:xlink="http://www.w3.org/1999/xlink">
    <!-- Generator: Sketch 46 (44423) - http://www.bohemiancoding.com/sketch -->
    <title>branding</title>
    <desc>Created with Sketch.</desc>
    <defs></defs>
    <g id="Page-1" stroke="none" stroke-width="1" fill="none" fill-rule="evenodd">
        <g id="Artboard" transform="translate(-40.000000, -40.000000)" fill="#E0432C">
            <g id="branding" transform="translate(40.000000, 40.000000)">
                <path d="M53.3333333,7.17963914 L53.3333333,26.682324 L56.8375167,26.682324 L56.81663,19.543415 L63.3935381,19.543415 C63.8357383,19.543415 64.0028316,19.2291693 64.1030875,18.7982211 C64.314341,17.775251 64.6682206,16.0605756 64.6682206,16.0605756 L56.81663,16.0605756 L56.81663,10.7202219 C56.81663,10.7202219 63.1584141,10.7226532 65.1354848,10.7226532 C65.3849311,10.7226532 65.7573103,10.5463839 65.8712917,9.9744202 C66.0825453,8.93443098 66.4388119,7.17963914 66.4388119,7.17963914 L53.3333333,7.17963914 Z M72.772838,12.7515743 C68.7620042,12.7515743 66.2585899,15.8952471 66.2585899,19.7172531 C66.2585899,23.5653955 68.7112795,26.682324 72.7984988,26.682324 C76.8857181,26.682324 79.3640684,23.5653955 79.3640684,19.7172531 C79.3634717,15.8952471 76.7836718,12.7515743 72.772838,12.7515743 L72.772838,12.7515743 Z M72.9823013,23.8960525 C70.6782053,23.8960525 69.5133269,21.9814026 69.5133269,19.929992 C69.5133269,17.9053256 70.7044628,15.9359714 72.9823013,15.9359714 C75.1055786,15.9359714 76.4512757,17.9053256 76.4512757,19.929992 C76.4518725,21.9814026 75.2863973,23.8960525 72.9823013,23.8960525 L72.9823013,23.8960525 Z M81.2820598,11.9686952 L81.2820598,26.682324 L84.366123,26.682324 L84.366123,10.7615541 C84.366123,10.7615541 82.8163335,11.0520946 81.9140302,11.22107 C81.3596388,11.3189299 81.2820598,11.5948826 81.2820598,11.9686952 L81.2820598,11.9686952 Z M86.6015915,8.37583947 L86.6015915,26.682324 L89.685058,26.682324 L89.685058,7.17963914 C89.685058,7.17963914 88.1436231,7.47017966 87.240723,7.64037077 C86.6785737,7.74309326 86.6015915,8.08894589 86.6015915,8.37583947 L86.6015915,8.37583947 Z M98.1262489,12.7515743 C94.1154151,12.7515743 91.6120007,15.8952471 91.6120007,19.7172531 C91.6120007,23.5653955 94.0646903,26.682324 98.1519096,26.682324 C102.239726,26.682324 104.717479,23.5653955 104.717479,19.7172531 C104.716882,15.8952471 102.137083,12.7515743 98.1262489,12.7515743 L98.1262489,12.7515743 Z M98.1644416,23.8960525 C95.8603456,23.8960525 94.6954672,21.9814026 94.6954672,19.929992 C94.6954672,17.9053256 95.8866031,15.9359714 98.1644416,15.9359714 C100.287719,15.9359714 101.634013,17.9053256 101.634013,19.929992 C101.634013,21.9814026 100.469134,23.8960525 98.1644416,23.8960525 L98.1644416,23.8960525 Z M122.567808,12.7515743 C122.388183,12.7515743 122.072496,12.9855871 121.925693,13.5101404 C121.297303,15.9080115 119.07198,23.1715247 119.07198,23.1715247 L116.463535,12.7515743 L113.878961,12.7515743 L111.293791,23.1715247 C111.293791,23.1715247 109.073241,15.9244228 108.442464,13.5180421 C108.318935,13.0895252 108.116036,12.7515743 107.8278,12.7515743 L104.956781,12.7515743 L109.458749,26.682324 L112.888934,26.682324 L114.12065,22.5819341 L115.183482,17.9472656 L116.246314,22.5819341 L117.478626,26.682324 L120.908811,26.682324 L125.385716,12.7515743 L122.567808,12.7515743 Z M132.086154,7.17963914 L124.86355,26.682324 L126.197908,26.682324 L127.945822,21.8902288 L128.428603,20.497093 L128.438151,20.4721722 L137.069112,20.4721722 L137.078063,20.497093 L137.56144,21.8902288 L139.332628,26.682324 L140.666987,26.682324 L133.443786,7.17963914 L132.086154,7.17963914 Z M128.718032,19.5178864 L132.572514,8.77153378 L136.426996,19.5178864 L128.718032,19.5178864 Z M148.196326,12.7515743 C146.351736,12.7795343 144.507147,13.5551195 143.491459,15.4381625 L143.491459,13.0007827 L142.208421,13.0007827 L142.208421,26.682324 L143.518313,26.682324 L143.518313,19.0656643 C143.518313,16.2410998 145.416014,14.1082405 148.142618,14.0808884 C151.002895,14.0529284 152.847485,15.714723 152.847485,18.8164559 L152.847485,26.6817162 L154.157376,26.6817162 L154.157376,18.7891037 C154.157376,14.9950578 151.724977,12.7515743 148.196326,12.7515743 L148.196326,12.7515743 Z M168.518441,15.9669705 C167.447851,13.7952105 165.333525,12.7515743 163.24486,12.7515743 C159.642211,12.7515743 156.692419,15.6284118 156.692419,19.8874442 C156.692419,24.1470844 159.642211,27.0804496 163.24486,27.0804496 C165.333525,27.0804496 167.265242,26.0647734 168.518441,23.8930134 L168.518441,26.8549464 L169.797301,26.8549464 L169.797301,12.9211576 L168.518441,12.9211576 L168.518441,15.9669705 Z M163.122524,25.9559727 C160.412033,25.9559727 158.233854,23.5422981 158.233854,19.9360702 C158.233854,16.3304501 160.412033,13.9459512 163.122524,13.9459512 C169.777608,13.9453433 169.777608,25.9559727 163.122524,25.9559727 L163.122524,25.9559727 Z M173.531834,26.682324 L174.688358,26.682324 L174.688358,7.17963914 L173.531834,7.17963914 L173.531834,26.682324 Z M197.09496,25.8125259 C195.069552,25.8125259 194.70135,24.4886822 194.70135,22.6013845 L194.70135,14.1234362 L199.120369,14.1234362 L199.120369,12.968568 L194.70135,12.968568 L194.70135,8.77153378 L193.438603,9.0882108 L193.438603,12.968568 L190.676194,12.968568 L190.676194,14.1234362 L193.438603,14.1234362 L193.438603,22.6013845 C193.438603,25.3335595 194.333148,27.0804496 197.09496,27.0804496 C197.910733,27.0804496 198.72591,26.7984187 199.541682,26.37598 L199.094708,25.2490718 C198.437077,25.5876305 197.726931,25.8125259 197.09496,25.8125259 L197.09496,25.8125259 Z M201.991388,26.682324 L203.147912,26.682324 L203.147912,12.7521821 L201.991388,12.7521821 L201.991388,26.682324 Z M201.60588,8.17464927 C201.60588,9.50153206 203.532823,9.50153206 203.532823,8.17464927 C203.532823,6.84776648 201.60588,6.84776648 201.60588,8.17464927 L201.60588,8.17464927 Z M212.227638,14.023145 C213.640172,14.023145 215.105221,14.5483061 216.171037,15.6539405 L217.02381,14.7969067 C215.691241,13.4426718 213.960036,12.7515743 212.227638,12.7515743 C208.417912,12.7515743 205.460363,15.4053399 205.460363,19.7172531 C205.460363,24.0291663 208.524136,26.682324 212.227638,26.682324 C213.960036,26.682324 215.691241,26.0185787 217.02381,24.6369916 L216.144183,23.7246458 C215.078964,24.8302801 213.640172,25.4107533 212.227638,25.4107533 C209.24383,25.4107533 206.739222,23.3933809 206.739222,19.7172531 C206.739222,16.0411252 209.24383,14.023145 212.227638,14.023145 L212.227638,14.023145 Z M224.298929,19.1300938 C222.645303,18.8207107 220.351948,18.4554076 220.298836,16.6015402 C220.245128,14.8315527 222.218618,14.0170667 224.272671,14.0444189 C225.739511,14.0444189 227.045822,14.2693143 228.379583,15.5056311 L229.179244,14.6066574 C227.872336,13.3144206 226.192453,12.7521821 224.272671,12.7521821 C221.605744,12.7242222 219.018783,13.9040112 219.045637,16.6295002 C219.072492,19.4103013 221.605744,19.916012 224.165851,20.3658028 C226.326127,20.730498 228.512661,21.1243688 228.45955,23.1186439 C228.379583,25.3098543 225.952555,25.7596451 224.35204,25.7596451 C222.592191,25.7596451 220.618701,25.056999 219.525434,23.3994592 L218.565841,24.2990407 C219.71222,26.1529081 222.005574,27.0804496 224.325783,27.0804496 C226.645991,27.0804496 229.65904,26.2653558 229.739603,23.2031316 C229.872681,19.9725397 226.645991,19.5513168 224.298929,19.1300938 L224.298929,19.1300938 Z M184.762288,22.0045 C184.401247,23.1970533 183.95666,24.7488315 183.540121,26.0015596 L183.429123,26.0015596 C182.929037,24.7488315 182.400903,23.1970533 181.984363,22.0045 L178.465858,12.7521821 L177.185804,12.7521821 L182.901586,27.5825134 L182.539948,28.8352415 C181.873366,31.012472 180.762196,32.6232092 179.122892,32.6232092 C178.733804,32.6232092 178.317264,32.5940336 178.039173,32.4748998 L177.761679,33.5483194 C178.12272,33.7270201 178.622806,33.8461538 179.122892,33.8461538 C181.512325,33.8461538 182.846087,31.4896149 183.596216,29.1032925 L189.134759,12.7515743 L187.854109,12.7515743 L184.762288,22.0045 Z" id="Fill-1"></path>
                <path d="M22.3172252,30.0689489 L22.3142209,12.0839405 C22.3142209,11.7210197 22.6050382,11.5077136 22.7925072,11.4500308 C22.9793754,11.392348 27.6138258,9.93105106 27.6138258,9.93105106 L27.6138258,30.0689489 L22.3172252,30.0689489 Z M17.6827748,30.0689489 L12.3861742,30.0689489 L12.3861742,15.2216431 C12.3861742,14.8563188 12.6421415,14.6520257 12.8326148,14.5919394 C13.0230881,14.5312523 17.6827748,13.0621442 17.6827748,13.0621442 L17.6827748,30.0689489 Z M0,40 L40,40 L40,0 L0,0 L0,40 Z" id="Fill-4"></path>
            </g>
        </g>
    </g>
</svg>