<?xml version="1.0" encoding="UTF-8"?>
<svg width="15px" height="23px" viewBox="0 0 15 23" version="1.1" xmlns="http://www.w3.org/2000/svg" xmlns:xlink="http://www.w3.org/1999/xlink">
    <!-- Generator: Sketch 46 (44423) - http://www.bohemiancoding.com/sketch -->
    <title>phone--icon</title>
    <desc>Created with Sketch.</desc>
    <defs></defs>
    <g id="Page-1" stroke="none" stroke-width="1" fill="none" fill-rule="evenodd">
        <g id="phone--icon" fill="#9A9A9A" fill-rule="nonzero">
            <path d="M0.54556804,1.43455784e-15 C0.229712859,1.43455784e-15 0,0.229712859 0,0.54556804 L0,22.454432 C0,22.7702871 0.229712859,23 0.54556804,23 L13.8401998,23 C14.1560549,23 14.3857678,22.7702871 14.3857678,22.454432 L14.3857678,0.54556804 C14.3857678,0.229712859 14.1560549,0 13.8401998,0 L0.54556804,1.43455784e-15 Z M2.87141074,2.87141074 L11.4856429,2.87141074 L11.4856429,17.2284644 L2.87141074,17.2284644 L2.87141074,2.87141074 Z M7.17852684,18.6641698 C7.98252185,18.6641698 8.61423221,19.2958801 8.61423221,20.0998752 C8.61423221,20.9038702 7.98252185,21.5355805 7.17852684,21.5355805 C6.37453184,21.5355805 5.74282147,20.9038702 5.74282147,20.0998752 C5.74282147,19.2958801 6.37453184,18.6641698 7.17852684,18.6641698 Z"></path>
        </g>
    </g>
</svg>